<?xml version="1.0" encoding="utf-8"?>
<!-- Generator: Adobe Illustrator 27.0.0, SVG Export Plug-In . SVG Version: 6.00 Build 0)  -->
<svg version="1.1" id="katman_1" xmlns="http://www.w3.org/2000/svg" xmlns:xlink="http://www.w3.org/1999/xlink" x="0px" y="0px"
	 viewBox="0 0 300 300" style="enable-background:new 0 0 300 300;" xml:space="preserve">
<style type="text/css">
	.st0{fill:#111111;}
</style>
<g>
	<path class="st0" d="M233.2,267h-76.2c-5.5,0-8.7-4.3-8.7-8.6V239c0-8.6,4.5-16.1,11.8-19.3c3.3-1.1,4.5-4.4,3.3-6.4l-7.5-19.4
		c0-2.1,0-4.3,2.2-4.3L216,166c2.1,0,3.1-2.1,4.3-3.3c1-2.1,1-4.3,0-6.4c-1.2-3.3-5.5-5.3-9.6-4.3l-90.5,35.5
		c-2.1,1-4.3,4.3-3.3,6.4l1.2,4.3c0,1.1,0,2.1-1.2,3.3c0,1-2.1,1-3.3,1c-8.6-1-23.6-7.5-29-33.2c-6.5-36.5,26.9-53.7,43-60.1
		c2.2-1.1,4.3-1.1,6.5,0c2.1,1,3.1,2.1,4.3,4.3l-3.3,1c-1,1.1-1,2.1-1,3.3c1,1,1,1,2.1,1c1,0,1,0,1,0l3.3-1c2.2,3.2,5.5,6.4,9.8,7.5
		l-1.2,3.3c0,2.1,1.2,3.3,2.2,3.3l0,0c1.2,0,2.2-1.1,2.2-2.1l1-3.3c1,1.1,2.2,1.1,3.3,1.1c3.3,0,5.3-1.1,8.6-2.2l1,4.4
		c1.2,0,2.2,1,2.2,1c1,0,1,0,1,0c1-1,2.2-2.1,1-3.2l-2.1-4.3c3.3-2.2,6.5-4.4,7.5-8.6l3.3,2.1c0,0,0,0,1,0l1-1c1-1.1,1-3.3,0-3.3
		l-4.3-2.1c1-1,1-3.3,1-4.3c0-3.3-1-5.4-2.1-8.6l3.3-1.1c1,0,1-1,1-3.2c-1-1.1-2.2-1.1-3.3-1.1l-2.1,2.1c-2.2-2.1-3.3-4.3-5.5-5.4
		c-1-1-2.1-2.1-3.3-3.2l-24.7-55.8c-2.2-4.3-7.5-6.4-12.9-4.3c-1.2,0-2.2,0-3.3-2.2l-5.3-9.7c-1.2-4.3-5.5-5.4-8.7-4.3
		c-3.1,2.1-4.3,6.4-3.1,9.7l5.3,9.6c0,1.1,0,2.2,0,2.2c-1.2,1-1.2,1-2.2,2.1c-2.1,1-4.3,2.1-5.3,4.3c0,3.2,0,5.4,0,7.5l8.6,17.2
		c1,3.2,0,6.4-3.3,7.5c-21.4,9.7-65.4,37.5-54.8,99.9c5.3,31.1,22.6,45.1,36.7,52.6c6.3,3.2,10.6,9.7,10.6,18.2v17.1
		c0,5.4-3.3,8.7-8.6,8.7H77.3c-3.3,0-5.3,3.2-5.3,5.4V282h166.5v-9.7C238.5,269.1,236.4,267,233.2,267L233.2,267z M122.5,81.2
		L122.5,81.2c1,0,3.1,1,3.1,3.2c0,2.1-2.1,4.3-3.1,4.3c-2.2,0-4.3-2.1-4.3-4.3C118.2,82.3,120.3,81.2,122.5,81.2L122.5,81.2z
		 M126.8,216.5L126.8,216.5c2.1,0,3.3,2.1,3.3,4.3c0,1.1-1.2,3.3-3.3,3.3c-2.2,0-3.3-2.1-3.3-3.3
		C123.5,218.6,124.6,216.5,126.8,216.5L126.8,216.5z"/>
</g>
</svg>
