<?xml version="1.0" encoding="utf-8"?>
<!-- Generator: Adobe Illustrator 27.0.0, SVG Export Plug-In . SVG Version: 6.00 Build 0)  -->
<svg version="1.1" id="katman_1" xmlns="http://www.w3.org/2000/svg" xmlns:xlink="http://www.w3.org/1999/xlink" x="0px" y="0px"
	 viewBox="0 0 300 300" style="enable-background:new 0 0 300 300;" xml:space="preserve">
<g>
	<path d="M239.9,146.2c1.2-1.1,3.3-3.3,4.3-5.4c7.6-9.7,12.9-19.5,17.4-28.1c3.3-8.6,5.3-17.2,5.3-26c0-7.5-2.1-14.1-6.4-20.5
		c-3.4-5.3-8.8-8.6-15.3-10.8c-6.4-3.3-14-4.3-22.6-4.3c-8.6,0-17.2,1-28.1,4.3c0-2.2-1-3.3-2.2-5.4c-5.3-11.9-11.9-21.6-19.5-29.2
		c-4.3-4.4-7.6-6.6-12.9-8.7c-4.3-2.2-8.6-3.2-12.9-3.2c-5.5,0-9.8,1-14.1,3.2c-7.6,3.3-15.2,9.7-20.5,17.3
		c-5.5,7.6-9.8,15.1-14.1,24.8c-9.7-2.2-19.5-4.3-28.1-4.3c-7.6,0-15.2,1.1-21.6,4.3c-6.6,2.2-11.9,5.4-16.4,10.8
		c-4.3,6.6-5.3,13-5.3,20.6c0,8.6,2.2,17.2,5.3,26c4.5,10.8,11.9,22.7,21.7,33.5c-2.2,2.2-3.3,4.3-5.3,6.6
		c-6.6,9.7-13.1,18.4-16.4,28c-4.3,8.7-6.4,17.3-6.4,26c0,7.6,2.1,14.1,6.4,19.5c3.3,5.4,8.8,9.7,16.4,11.9
		c5.3,2.2,12.9,3.2,21.6,3.2s18.5-1,28.1-3.2c1,1,1,3.2,2.2,4.3c5.3,12.9,11.9,22.7,19.5,30.3c4.3,3.3,8.6,6.5,12.9,8.6
		c4.3,2.2,8.6,3.3,14.1,3.3c4.3,0,8.6-1.1,12.9-3.3c8.6-3.2,15.2-9.7,21.7-18.4c4.1-6.5,8.6-15.2,12.9-23.8
		c9.7,2.2,19.5,3.3,28.1,3.3c8.6,0,15.2-1.1,21.6-3.3c6.6-2.2,11.9-6.5,16.4-11.9c4.3-5.3,6.4-12.9,6.4-20.5c0-7.6-2.1-16.2-6.4-26
		C256.1,168.8,248.7,158.1,239.9,146.2L239.9,146.2z M222.7,61.8L222.7,61.8c7.6,0,14.1,0,18.5,2.2c5.3,2.2,8.6,4.3,11.9,8.6
		c3.1,3.3,4.1,8.7,4.1,14.1c0,6.6-2.1,14.1-5.3,21.6c-4.3,9.7-10.7,19.5-19.5,30.3v-1.1c-7.4-7.5-15-15.1-23.8-22.7
		c-2.1-18.4-5.3-35.6-10.9-50.8C207.5,62.9,216.1,60.8,222.7,61.8L222.7,61.8z M209.5,128.8L209.5,128.8
		c6.6,6.5,11.9,11.9,16.4,17.3l-1,2.2c-4.5,4.3-9.8,9.7-15.4,15.1c0-6.5,1.2-11.8,1.2-17.2S209.5,135.3,209.5,128.8L209.5,128.8z
		 M199.9,146.2L199.9,146.2c0,8.6,0,17.2-1,26c-6.6,5.3-13.1,10.8-20.5,16.2c-10.9,7.5-21.7,14.1-32.6,19.4
		c-9.7-5.3-20.5-11.9-31.4-19.4c-7.6-5.4-14-10.9-20.5-16.2c-1-8.7-1-17.3-1-26c0-9.7,0-18.4,1-27.1c6.6-5.3,14.1-10.8,20.5-15.1
		c10.9-7.6,21.7-14.1,32.6-19.5c10.7,5.4,21.6,11.9,31.4,19.5c7.4,5.4,14,10.8,20.5,16.2C199.9,127.8,199.9,136.4,199.9,146.2
		L199.9,146.2z M192.3,81.3L192.3,81.3c2.2,7.5,4.3,16.2,5.3,23.7c-4.1-3.2-8.6-6.5-12.9-9.7c-9.7-6.6-18.3-11.9-27.1-16.2
		c5.5-3.3,10.9-5.4,15.2-6.5c5.5-2.2,10.9-4.3,15.2-5.3C190.2,71.6,191.3,76.9,192.3,81.3L192.3,81.3z M109,54.2L109,54.2
		c5.3-10.8,11.9-20.5,18.5-26c3.3-3.2,6.4-5.4,9.7-7.5c3.3-1.1,6.6-2.2,9.8-2.2c3.1,0,6.4,1,9.7,2.2c5.3,3.2,10.9,7.5,16.2,15.1
		c4.3,5.4,8.8,13,11.9,21.6c-5.3,1-9.7,3.3-15.2,5.4c-7.6,3.2-15,6.5-22.6,9.7c-7.6-4.3-16.2-7.6-24-10.8c-4.1-2.2-9.7-3.3-15-4.3
		C109,56.4,109,55.3,109,54.2L109,54.2z M104.7,66.1L104.7,66.1c5.3,2.2,9.7,3.3,15.2,5.4c5.3,2.2,10.9,4.3,16.2,6.5
		c-8.6,5.4-18.5,10.8-27.1,17.3c-4.3,3.2-9.8,6.5-12.9,9.7C98.1,91,100.4,78,104.7,66.1L104.7,66.1z M41.9,107.2L41.9,107.2
		c-4.3-7.5-5.3-15.1-5.3-21.6c0-5.4,1-10.8,4.3-14.1c2.1-3.3,6.4-6.6,10.7-8.6c5.5-1.1,10.9-2.2,18.5-2.2c7.6,0,16.2,1,24.8,3.2
		c-2.1,4.3-3.3,9.7-4.3,15.2c-3.3,10.8-5.3,22.7-6.4,35.6c-8.8,7.6-17.4,15.2-23.8,22.7c-1.2-1-2.2-2.2-3.3-3.2
		C50.5,124.5,45.2,115.9,41.9,107.2L41.9,107.2z M82.9,162.4L82.9,162.4c-6.4-5.4-11.9-10.8-16.2-16.2l1-2.2
		c4.5-5.4,9.8-9.8,15.2-15.2c0,5.4-1,10.9-1,17.3C81.9,151.6,82.9,156.9,82.9,162.4L82.9,162.4z M70,230.5L70,230.5
		c-7.6,0-14.1-1.1-18.5-3.3c-5.3-1.1-8.6-4.3-11.9-7.6c-2.1-4.3-4.3-8.6-4.3-14.1c0-6.5,2.2-14.1,5.5-21.6
		c4.3-9.8,10.7-20.6,19.5-30.4l1,1.1c6.4,7.6,14,15.2,22.8,22.7c2.1,18.4,5.3,35.7,10.7,49.8C85.2,229.4,77.6,230.5,70,230.5
		L70,230.5z M100.4,211L100.4,211c-2.2-7.6-3.3-16.2-4.3-24.8c3.1,3.2,7.4,6.5,12.9,9.7c8.6,6.6,17.2,11.9,26,17.3
		c-5.5,2.2-9.8,4.3-15.2,6.5c-5.5,2.2-10.9,4.3-15.2,5.4C102.4,220.8,101.4,215.3,100.4,211L100.4,211z M183.7,237L183.7,237
		c-5.3,11.9-11.9,21.6-17.2,27c-3.3,3.3-6.6,5.4-9.8,6.5c-3.3,2.2-6.6,3.3-9.7,3.3c-3.3,0-6.6-1-9.8-3.3
		c-6.4-2.2-11.9-7.5-17.2-14.1c-4.3-6.5-8.8-14-11.9-22.7c5.3-1,9.7-2.2,15-4.3c7.8-3.3,15.2-6.5,22.8-10.8
		c8.8,4.3,16.2,7.5,23.8,10.8c5.5,2.2,9.8,4.3,15.2,5.4C183.7,235.8,183.7,237,183.7,237L183.7,237z M188,225.1L188,225.1
		c-4.3-1.1-9.7-2.2-15.2-4.3c-5.3-2.2-10.9-5.4-16.2-7.6c9.8-4.3,18.5-10.8,27.1-16.2c5.3-3.3,9.8-6.5,14-10.8
		C195.6,201.3,192.3,214.3,188,225.1L188,225.1z M251.8,220.8L251.8,220.8c-2.1,3.2-6.6,5.3-10.7,7.5c-5.5,2.2-10.9,3.3-18.5,3.3
		c-7.6,0-15.2-1-25-3.3c2.2-5.4,3.3-9.7,4.5-15.1c3.3-10.8,5.3-22.7,6.4-35.7c8.8-7.5,17.4-15.1,23.8-23.8c1,2.2,2.2,3.3,3.3,4.4
		c6.6,8.6,11.9,18.4,16.2,26c3.3,8.6,4.3,16.2,4.3,21.6C256.1,212,255.1,216.4,251.8,220.8L251.8,220.8z M171.8,146.2L171.8,146.2
		c0,14.1-11.9,24.8-24.8,24.8c-14.1,0-26-10.8-26-24.8s11.9-24.9,26-24.9C159.9,121.2,171.8,132.1,171.8,146.2L171.8,146.2z"/>
</g>
</svg>
