<?xml version="1.0" encoding="utf-8"?>
<!-- Generator: Adobe Illustrator 27.0.0, SVG Export Plug-In . SVG Version: 6.00 Build 0)  -->
<svg version="1.1" id="katman_1" xmlns="http://www.w3.org/2000/svg" xmlns:xlink="http://www.w3.org/1999/xlink" x="0px" y="0px"
	 viewBox="0 0 300 300" style="enable-background:new 0 0 300 300;" xml:space="preserve">
<style type="text/css">
	.st0{fill-rule:evenodd;clip-rule:evenodd;fill:#020202;}
</style>
<g>
	<path class="st0" d="M160.1,159.9c0,3.7-0.9,5.5-3.7,5.5c-1.7,0-3.6-1.8-3.6-5.5c0-2.7,1.9-5.4,3.6-5.4
		C159.2,154.5,160.1,157.3,160.1,159.9L160.1,159.9z M247.5,238.2l-1.9-2.8c-5.4-9.1-18.1-32.7-30.9-51.8
		c-4.6-6.3-9.1-12.7-13.6-18.1c-6.4-9.1-14.6-20-14.6-23.6c0.9-13.6,0-48.2,0-58.2h8.2V68.1H87.3v15.4h11.8c0,10-0.9,44.6,0,58.2
		c0,3.6-8.2,14.6-14.6,23.6c-4.6,5.4-9.1,11.8-13.6,18.1c-12.8,19.1-26.4,42.7-31.9,51.8l-0.9,2.8c-5.4,10-5.4,23.6,0,33.6
		c3.6,7.3,10.9,10.9,19.1,10.9h171.1c8.2,0,15.5-3.6,19.1-10.9C252.9,261.7,252.9,248.2,247.5,238.2L247.5,238.2z M237.5,265.4
		c-2.8,3.6-5.5,5.4-9.1,5.4H57.2c-3.6,0-6.3-1.8-9.1-5.4c-2.7-5.5-2.7-14.6,0.9-21l0.9-2.7c5.5-10,18.2-31.8,31.9-50.9
		c3.6-7.3,8.1-12.8,12.7-18.2c10.9-15.4,17.3-23.6,16.4-30.9c0-12.8,0-42.8,0-55.5h63.7c0,12.7,0,42.7,0,55.5
		c-0.9,7.3,5.4,15.4,16.4,30.9c4.5,5.4,9.1,10.9,12.7,18.2c13.7,19.1,26.4,40.9,31.8,50.9l0.9,2.7
		C240.2,250.9,240.2,259.9,237.5,265.4L237.5,265.4z M229.3,240c-3.7-6.4-10.9-19.1-19.1-31c-1.8-2.7-3.6-5.4-5.4-8.1H80.9
		c-1.8,2.7-3.6,5.4-5.4,8.1c-8.3,11.8-15.5,24.6-19.1,31l-0.9,0.9c-2.8,6.4-2.8,14.6,0,20c2.7,4.6,6.3,6.4,11.7,6.4h151.1
		c4.5,0,9.1-1.8,11.8-6.4c2.8-5.4,2.8-13.6-0.9-20V240z M126.4,171.8c0,4.5-2.8,8.1-6.3,8.1c-2.8,0-5.5-3.6-5.5-8.1
		c0-4.6,2.8-8.2,5.5-8.2C123.6,163.6,126.4,167.3,126.4,171.8L126.4,171.8z M160.1,183.6c0,14.6-15.4,14.6-15.4,0
		c0-6.3,3.6-11.7,8.1-11.7C156.4,171.8,160.1,177.3,160.1,183.6L160.1,183.6z M146.4,168.1c0,6.4-2.7,10.9-7.3,10.9
		c-3.6,0-7.3-4.6-7.3-10.9c0-5.4,3.6-10,7.3-10C143.7,158.1,146.4,162.7,146.4,168.1L146.4,168.1z M138.3,154.5
		c-6.4,0-10.9-6.3-10.9-15.4c0-9.1,4.6-15.4,10.9-15.4c5.4,0,10.9,6.4,10.9,15.4C149.2,148.2,143.7,154.5,138.3,154.5L138.3,154.5z
		 M154.7,140c0-4.6,1.7-8.2,5.4-8.2c2.7,0,5.4,3.6,5.4,8.2c0,4.5-2.8,8.2-5.4,8.2C156.4,148.2,154.7,144.5,154.7,140L154.7,140z"/>
</g>
</svg>
