<?xml version="1.0" standalone="no"?>
<!DOCTYPE svg PUBLIC "-//W3C//DTD SVG 20010904//EN"
 "http://www.w3.org/TR/2001/REC-SVG-20010904/DTD/svg10.dtd">
<svg version="1.0" xmlns="http://www.w3.org/2000/svg"
 width="1058.000000pt" height="793.000000pt" viewBox="0 0 1058.000000 793.000000"
 preserveAspectRatio="xMidYMid meet">

<g transform="translate(0.000000,793.000000) scale(0.100000,-0.100000)"
fill="#000000" stroke="none">
<path d="M2749 7716 c-72 -25 -128 -86 -148 -159 -9 -30 -11 -189 -9 -568 l3
-526 30 -49 c19 -30 49 -60 79 -79 49 -30 50 -30 219 -33 196 -4 236 3 298 56
81 70 79 48 79 652 l0 535 -24 50 c-28 60 -56 87 -116 114 -40 18 -65 21 -210
20 -110 0 -177 -4 -201 -13z"/>
<path d="M5359 7703 c-68 -35 -114 -94 -129 -166 -7 -37 -10 -213 -8 -553 3
-565 1 -550 84 -623 63 -55 103 -63 300 -59 164 3 171 4 216 31 55 32 85 71
104 134 18 60 20 1018 3 1089 -7 28 -28 63 -55 93 -64 71 -101 81 -299 81
-156 0 -163 -1 -216 -27z"/>
<path d="M1306 7235 c-47 -16 -100 -66 -129 -120 l-22 -40 0 -3175 0 -3175 22
-41 c28 -52 79 -97 134 -118 40 -15 177 -16 1599 -14 l1554 3 210 230 210 230
-1540 5 -1539 5 -41 22 c-53 28 -107 91 -122 142 -17 55 -17 5367 0 5422 15
51 69 114 122 142 39 21 57 22 311 27 l270 5 0 230 0 230 -500 2 c-405 2 -507
0 -539 -12z"/>
<path d="M3550 7015 l0 -235 715 0 715 0 0 235 0 235 -715 0 -715 0 0 -235z"/>
<path d="M6184 7237 c-2 -7 -3 -111 -2 -232 l3 -220 265 -5 c241 -5 269 -7
310 -26 47 -22 103 -77 123 -123 9 -19 13 -444 17 -1709 l5 -1684 238 262 237
261 0 1633 c0 1846 6 1704 -79 1786 -27 26 -63 51 -87 58 -61 18 -1023 17
-1030 -1z"/>
<path d="M2398 5787 c-43 -36 -48 -57 -48 -205 0 -159 9 -193 55 -222 33 -20
37 -20 1869 -18 l1836 3 32 33 33 32 3 153 c3 168 -7 209 -58 234 -20 10 -413
13 -1860 13 l-1835 0 -27 -23z"/>
<path d="M2434 4849 c-16 -5 -41 -20 -55 -35 -23 -25 -24 -29 -24 -195 l0
-169 33 -32 32 -33 1833 -2 c1453 -2 1837 0 1857 10 13 7 35 28 48 47 22 33
23 41 20 187 -3 171 -13 197 -79 220 -41 14 -3615 17 -3665 2z"/>
<path d="M2425 3886 c-67 -29 -70 -40 -70 -228 l0 -170 33 -29 32 -29 1844 0
1843 0 26 21 c40 31 49 78 45 235 -3 157 -9 172 -75 200 -47 20 -3633 20
-3678 0z"/>
<path d="M8555 3881 c-52 -13 -99 -40 -157 -89 -104 -86 -236 -207 -237 -215
-1 -9 796 -800 812 -806 10 -4 179 168 247 252 22 26 47 72 56 101 16 50 16
60 0 152 -26 159 -106 296 -256 437 -81 77 -150 119 -236 146 -71 23 -186 33
-229 22z"/>
<path d="M7089 2513 c-996 -999 -1265 -1273 -1306 -1330 -56 -77 -96 -173
-166 -398 -183 -589 -187 -705 -26 -705 125 0 675 161 876 256 41 20 102 57
137 84 59 44 2016 1999 2025 2022 3 9 -787 808 -799 808 -3 0 -337 -332 -741
-737z"/>
<path d="M2412 2923 c-54 -26 -62 -54 -62 -218 0 -158 7 -188 54 -219 23 -15
173 -16 1862 -16 1835 0 1836 0 1865 21 42 30 51 75 47 236 l-3 143 -33 32
-32 33 -1833 2 c-1677 2 -1835 1 -1865 -14z"/>
<path d="M2408 1964 c-50 -26 -58 -58 -58 -219 0 -111 4 -153 15 -175 33 -64
-69 -60 1522 -59 l1448 0 205 226 c113 124 207 230 208 235 2 4 -743 8 -1655
8 -1447 -1 -1661 -3 -1685 -16z"/>
</g>
</svg>
